# xmcd CD database file
#
# Track frame offsets:
#	150
#	11540
#	21552
#	33352
#	43817
#	57675
#	68167
#	82152
#	93577
#	107717
#	120045
#	132460
#
# Disc length: 1904 seconds
#
# Revision: 1
# Processed by: cddbd v1.5.2PL0 Copyright (c) Steve Scherf et al.
# Submitted via: CDex 1.51
#
DISCID=a6076e0c
DTITLE=Ray Charles - Les Inoubliables
DYEAR=1998
DGENRE=Blues
TTITLE0=Rockin' Chair Blues
TTITLE1=Goin' Down Slow
TTITLE2=St Pete Blues
TTITLE3=Hey Now
TTITLE4=This Love Of Mine
TTITLE5=They're Crazy About Me
TTITLE6=Baby Let Me Hold Your Hands
TTITLE7=If I Give You My Love
TTITLE8=Blues Is My Middle Name
TTITLE9=I Will Not Let You Go
TTITLE10=I'm Glad For Your Sake
TTITLE11=I Wonder Who's Kissing Her Now
EXTD=YEAR: 1998
EXTT0=
EXTT1=
EXTT2=
EXTT3=
EXTT4=
EXTT5=
EXTT6=
EXTT7=
EXTT8=
EXTT9=
EXTT10=
EXTT11=
PLAYORDER=
